<svg width="1798" height="726" viewBox="0 0 1798 726" fill="none" xmlns="http://www.w3.org/2000/svg">
<path fill-rule="evenodd" clip-rule="evenodd" d="M3.10613e-05 166.13C0.0241055 148.965 14.0365 135.069 31.2976 135.093L1194.53 136.706C1211.77 136.73 1225.74 150.638 1225.74 167.787V693.733C1225.74 710.898 1211.74 724.814 1194.48 724.814C1177.22 724.814 1163.23 710.898 1163.23 693.733V198.824L31.2105 197.254C13.9493 197.23 -0.0240434 183.295 3.10613e-05 166.13Z" fill="#091E42"/>
<path fill-rule="evenodd" clip-rule="evenodd" d="M253.517 296.439C183.403 296.439 120.067 362.159 120.067 451.733C120.067 541.307 183.403 607.028 253.517 607.028C323.631 607.028 386.967 541.307 386.967 451.733C386.967 362.159 323.631 296.439 253.517 296.439ZM59.2509 451.733C59.2509 336.373 142.638 235.961 253.517 235.961C364.395 235.961 447.783 336.373 447.783 451.733C447.783 567.094 364.395 667.506 253.517 667.506C142.638 667.506 59.2509 567.094 59.2509 451.733Z" fill="#091E42"/>
<path fill-rule="evenodd" clip-rule="evenodd" d="M600.701 148.427C618.621 148.427 633.148 162.873 633.148 180.693V693.733C633.148 711.554 618.621 726 600.701 726C582.781 726 568.254 711.554 568.254 693.733V180.693C568.254 162.873 582.781 148.427 600.701 148.427Z" fill="#091E42"/>
<path d="M282.719 43.56C282.719 58.6931 270.357 74.2133 255.139 74.2133C239.921 74.2133 227.559 61.9197 227.559 46.7867C227.559 31.6536 239.921 19.36 255.139 19.36C270.357 19.36 282.719 28.4269 282.719 43.56Z" fill="#091E42"/>
<path fill-rule="evenodd" clip-rule="evenodd" d="M255.139 38.72C250.674 38.72 247.027 42.3458 247.027 46.7867C247.027 51.2275 250.674 54.8533 255.139 54.8533C255.833 54.8533 257.686 54.4687 259.877 51.9361C262.1 49.366 263.251 46.099 263.251 43.56C263.251 42.4476 263.036 41.855 262.906 41.5776C262.772 41.2914 262.557 40.9782 262.136 40.6272C261.232 39.8749 259.004 38.72 255.139 38.72ZM208.091 46.7867C208.091 20.9614 229.169 0 255.139 0C266.492 0 278.054 3.37853 287.136 10.943C296.554 18.7869 302.188 30.2756 302.188 43.56C302.188 56.1541 297.157 68.2137 289.395 77.187C281.6 86.1979 269.663 93.5733 255.139 93.5733C229.169 93.5733 208.091 72.612 208.091 46.7867Z" fill="#091E42"/>
<path fill-rule="evenodd" clip-rule="evenodd" d="M1171.77 542.08C1171.77 524.26 1186.3 509.813 1204.22 509.813H1765.55C1783.47 509.813 1798 524.26 1798 542.08C1798 559.9 1783.47 574.347 1765.55 574.347H1204.22C1186.3 574.347 1171.77 559.9 1171.77 542.08Z" fill="#091E42"/>
<path fill-rule="evenodd" clip-rule="evenodd" d="M909.97 148.327C926.153 155.981 933.033 175.231 925.337 191.325L737.079 584.978C729.383 601.071 710.024 607.913 693.841 600.259C677.658 592.606 670.778 573.355 678.474 557.262L866.733 163.609C874.429 147.516 893.787 140.674 909.97 148.327Z" fill="#091E42"/>
<path fill-rule="evenodd" clip-rule="evenodd" d="M882.035 148.327C898.218 140.674 917.576 147.516 925.272 163.609L1113.53 557.262C1121.23 573.355 1114.35 592.606 1098.16 600.259C1081.98 607.913 1062.62 601.071 1054.93 584.978L866.668 191.325C858.971 175.231 865.851 155.981 882.035 148.327Z" fill="#091E42"/>
<path d="M1497.86 703.413C1513.1 703.413 1525.44 691.134 1525.44 675.987C1525.44 660.839 1513.1 648.56 1497.86 648.56C1482.63 648.56 1470.28 660.839 1470.28 675.987C1470.28 691.134 1482.63 703.413 1497.86 703.413Z" fill="#091E42"/>
<path fill-rule="evenodd" clip-rule="evenodd" d="M1497.86 667.92C1493.38 667.92 1489.75 671.532 1489.75 675.987C1489.75 680.442 1493.38 684.053 1497.86 684.053C1502.34 684.053 1505.98 680.442 1505.98 675.987C1505.98 671.532 1502.34 667.92 1497.86 667.92ZM1450.82 675.987C1450.82 650.147 1471.88 629.2 1497.86 629.2C1523.85 629.2 1544.91 650.147 1544.91 675.987C1544.91 701.826 1523.85 722.773 1497.86 722.773C1471.88 722.773 1450.82 701.826 1450.82 675.987Z" fill="#091E42"/>
<path d="M543.919 454.96C559.151 454.96 571.499 442.681 571.499 427.533C571.499 412.386 559.151 400.107 543.919 400.107C528.687 400.107 516.339 412.386 516.339 427.533C516.339 442.681 528.687 454.96 543.919 454.96Z" fill="#091E42"/>
<path fill-rule="evenodd" clip-rule="evenodd" d="M543.919 419.467C539.439 419.467 535.807 423.078 535.807 427.533C535.807 431.988 539.439 435.6 543.919 435.6C548.399 435.6 552.03 431.988 552.03 427.533C552.03 423.078 548.399 419.467 543.919 419.467ZM496.87 427.533C496.87 401.694 517.934 380.747 543.919 380.747C569.903 380.747 590.967 401.694 590.967 427.533C590.967 453.373 569.903 474.32 543.919 474.32C517.934 474.32 496.87 453.373 496.87 427.533Z" fill="#091E42"/>
<path fill-rule="evenodd" clip-rule="evenodd" d="M1515.13 138.325C1529.7 148.7 1533.06 168.856 1522.62 183.345L1334.43 444.705C1324 459.194 1303.73 462.529 1289.16 452.155C1274.59 441.78 1271.23 421.624 1281.67 407.135L1469.86 145.775C1480.29 131.286 1500.56 127.951 1515.13 138.325Z" fill="#091E42"/>
<path fill-rule="evenodd" clip-rule="evenodd" d="M1477.35 138.325C1491.92 127.951 1512.19 131.286 1522.62 145.775L1710.82 407.135C1721.25 421.624 1717.9 441.78 1703.33 452.155C1688.76 462.529 1668.49 459.194 1658.05 444.705L1469.86 183.345C1459.43 168.856 1462.78 148.7 1477.35 138.325Z" fill="#091E42"/>
</svg>
